<svg width="168" height="168" viewBox="0 0 168 168" fill="none" xmlns="http://www.w3.org/2000/svg">
<rect width="168" height="168" rx="15" fill="#FF4646"/>
<path d="M129.938 31.5H105.875V27.125C105.875 19.8879 99.9871 14 92.75 14H75.25C68.0129 14 62.125 19.8879 62.125 27.125V31.5H38.0625C32.0316 31.5 27.125 36.4066 27.125 42.4375V57.75C27.125 60.1661 29.0839 62.125 31.5 62.125H33.8909L37.6707 141.499C38.0045 148.509 43.7631 154 50.7806 154H117.219C124.237 154 129.996 148.509 130.329 141.499L134.109 62.125H136.5C138.916 62.125 140.875 60.1661 140.875 57.75V42.4375C140.875 36.4066 135.968 31.5 129.938 31.5ZM70.875 27.125C70.875 24.7127 72.8377 22.75 75.25 22.75H92.75C95.1623 22.75 97.125 24.7127 97.125 27.125V31.5H70.875V27.125ZM35.875 42.4375C35.875 41.2314 36.8564 40.25 38.0625 40.25H129.938C131.144 40.25 132.125 41.2314 132.125 42.4375V53.375C130.777 53.375 41.4621 53.375 35.875 53.375V42.4375ZM121.589 141.083C121.478 143.42 119.558 145.25 117.219 145.25H50.7806C48.4414 145.25 46.5218 143.42 46.4108 141.083L42.6508 62.125H125.349L121.589 141.083Z" fill="white"/>
<path d="M84 136.5C86.4161 136.5 88.375 134.541 88.375 132.125V75.25C88.375 72.8339 86.4161 70.875 84 70.875C81.5839 70.875 79.625 72.8339 79.625 75.25V132.125C79.625 134.541 81.5836 136.5 84 136.5Z" fill="white"/>
<path d="M105.875 136.5C108.291 136.5 110.25 134.541 110.25 132.125V75.25C110.25 72.8339 108.291 70.875 105.875 70.875C103.459 70.875 101.5 72.8339 101.5 75.25V132.125C101.5 134.541 103.459 136.5 105.875 136.5Z" fill="white"/>
<path d="M62.125 136.5C64.5411 136.5 66.5 134.541 66.5 132.125V75.25C66.5 72.8339 64.5411 70.875 62.125 70.875C59.7089 70.875 57.75 72.8339 57.75 75.25V132.125C57.75 134.541 59.7086 136.5 62.125 136.5Z" fill="white"/>
</svg>
